<svg width="113" height="51" viewBox="0 0 113 51" fill="none" xmlns="http://www.w3.org/2000/svg">
<path d="M1.768 26V7.8H8.502C9.958 7.8 11.1627 8.04267 12.116 8.528C13.0693 9.01333 13.78 9.68067 14.248 10.53C14.716 11.3793 14.95 12.3327 14.95 13.39C14.95 14.3953 14.7247 15.3227 14.274 16.172C13.8233 17.004 13.1213 17.68 12.168 18.2C11.2147 18.7027 9.99267 18.954 8.502 18.954H5.096V26H1.768ZM5.096 16.25H8.294C9.45533 16.25 10.2873 15.9987 10.79 15.496C11.31 14.976 11.57 14.274 11.57 13.39C11.57 12.4887 11.31 11.7867 10.79 11.284C10.2873 10.764 9.45533 10.504 8.294 10.504H5.096V16.25ZM17.561 26V7.8H20.889V15.366H29.053V7.8H32.381V26H29.053V18.07H20.889V26H17.561Z" fill="#F9F9F9"/>
<g filter="url(#filter0_d_20_14)">
<path d="M56.5399 8.91878L46.5019 7L36.7376 26.2792L43.7643 27.0102L34 43L58 20.8883L48.692 19.9746L56.5399 8.91878Z" fill="#DFA81A"/>
</g>
<path d="M45.598 26L52.254 7.8H55.998L62.654 26H59.118L57.662 21.788H50.564L49.082 26H45.598ZM51.474 19.188H56.752L54.1 11.622L51.474 19.188ZM64.9205 26V7.28H68.2485V26H64.9205ZM75.133 26L70.401 13.104H73.885L77.161 22.854L80.437 13.104H83.921L79.163 26H75.133ZM91.6513 26.312C90.3513 26.312 89.1986 26.0347 88.1933 25.48C87.188 24.9253 86.3993 24.1453 85.8273 23.14C85.2553 22.1347 84.9693 20.9733 84.9693 19.656C84.9693 18.3213 85.2466 17.134 85.8013 16.094C86.3733 15.054 87.1533 14.248 88.1413 13.676C89.1466 13.0867 90.3253 12.792 91.6773 12.792C92.9426 12.792 94.0606 13.0693 95.0313 13.624C96.002 14.1787 96.756 14.9413 97.2933 15.912C97.848 16.8653 98.1253 17.9313 98.1253 19.11C98.1253 19.3007 98.1166 19.5 98.0993 19.708C98.0993 19.916 98.0906 20.1327 98.0733 20.358H88.2713C88.3406 21.3633 88.6873 22.152 89.3113 22.724C89.9526 23.296 90.724 23.582 91.6253 23.582C92.3013 23.582 92.8646 23.4347 93.3153 23.14C93.7833 22.828 94.13 22.4293 94.3553 21.944H97.7353C97.4926 22.7587 97.0853 23.504 96.5133 24.18C95.9586 24.8387 95.2653 25.3587 94.4333 25.74C93.6186 26.1213 92.6913 26.312 91.6513 26.312ZM91.6773 15.496C90.8626 15.496 90.1433 15.73 89.5193 16.198C88.8953 16.6487 88.4966 17.342 88.3233 18.278H94.7453C94.6933 17.4287 94.3813 16.7527 93.8093 16.25C93.2373 15.7473 92.5266 15.496 91.6773 15.496ZM106.254 26.312C105.11 26.312 104.105 26.13 103.238 25.766C102.372 25.3847 101.678 24.8647 101.158 24.206C100.638 23.5473 100.326 22.7847 100.222 21.918H103.576C103.68 22.4207 103.958 22.854 104.408 23.218C104.876 23.5647 105.474 23.738 106.202 23.738C106.93 23.738 107.459 23.5907 107.788 23.296C108.135 23.0013 108.308 22.6633 108.308 22.282C108.308 21.7273 108.066 21.3547 107.58 21.164C107.095 20.956 106.419 20.7567 105.552 20.566C104.998 20.4447 104.434 20.2973 103.862 20.124C103.29 19.9507 102.762 19.734 102.276 19.474C101.808 19.1967 101.427 18.85 101.132 18.434C100.838 18.0007 100.69 17.472 100.69 16.848C100.69 15.704 101.141 14.742 102.042 13.962C102.961 13.182 104.244 12.792 105.89 12.792C107.416 12.792 108.629 13.1473 109.53 13.858C110.449 14.5687 110.995 15.548 111.168 16.796H108.022C107.832 15.8427 107.112 15.366 105.864 15.366C105.24 15.366 104.755 15.4873 104.408 15.73C104.079 15.9727 103.914 16.276 103.914 16.64C103.914 17.0213 104.166 17.3247 104.668 17.55C105.171 17.7753 105.838 17.9833 106.67 18.174C107.572 18.382 108.395 18.616 109.14 18.876C109.903 19.1187 110.51 19.4913 110.96 19.994C111.411 20.4793 111.636 21.1813 111.636 22.1C111.654 22.8973 111.446 23.6167 111.012 24.258C110.579 24.8993 109.955 25.402 109.14 25.766C108.326 26.13 107.364 26.312 106.254 26.312Z" fill="#F9F9F9"/>
<defs>
<filter id="filter0_d_20_14" x="30" y="7" width="32" height="44" filterUnits="userSpaceOnUse" color-interpolation-filters="sRGB">
<feFlood flood-opacity="0" result="BackgroundImageFix"/>
<feColorMatrix in="SourceAlpha" type="matrix" values="0 0 0 0 0 0 0 0 0 0 0 0 0 0 0 0 0 0 127 0" result="hardAlpha"/>
<feOffset dy="4"/>
<feGaussianBlur stdDeviation="2"/>
<feComposite in2="hardAlpha" operator="out"/>
<feColorMatrix type="matrix" values="0 0 0 0 0 0 0 0 0 0 0 0 0 0 0 0 0 0 0.1 0"/>
<feBlend mode="normal" in2="BackgroundImageFix" result="effect1_dropShadow_20_14"/>
<feBlend mode="normal" in="SourceGraphic" in2="effect1_dropShadow_20_14" result="shape"/>
</filter>
</defs>
</svg>
