<svg width="59" height="70" viewBox="0 0 59 70" fill="none" xmlns="http://www.w3.org/2000/svg">
<circle cx="29.5" cy="32.5" r="29.5" fill="#878787"/>
<circle cx="29.5" cy="32.5" r="25.5" fill="#A8A6A6"/>
<circle cx="29.5" cy="32.5" r="21.5" fill="#8C8C8C"/>
<g filter="url(#filter0_d_58_24)">
<path d="M48.5057 3.30457L31.3574 0L14.6768 33.203L26.6806 34.4619L10 62L51 23.9188L35.0989 22.3452L48.5057 3.30457Z" fill="#FFD43D"/>
</g>
<path d="M29.384 24.532C29.384 24.972 29.272 25.392 29.048 25.792C28.832 26.192 28.536 26.544 28.16 26.848C27.792 27.144 27.356 27.38 26.852 27.556C26.356 27.732 25.828 27.82 25.268 27.82C25.068 27.82 24.908 27.796 24.788 27.748C24.676 27.692 24.548 27.588 24.404 27.436C24.004 28.308 23.676 29.112 23.42 29.848C23.172 30.576 22.976 31.284 22.832 31.972C22.528 31.9 22.28 31.772 22.088 31.588C21.896 31.412 21.72 31.188 21.56 30.916C21.64 30.764 21.736 30.564 21.848 30.316C21.96 30.068 22.096 29.764 22.256 29.404C22.416 29.036 22.6 28.6 22.808 28.096C23.024 27.584 23.276 26.988 23.564 26.308C23.692 25.996 23.804 25.724 23.9 25.492C23.996 25.26 24.08 25.044 24.152 24.844C24.224 24.636 24.288 24.432 24.344 24.232C24.408 24.032 24.472 23.812 24.536 23.572C24.16 23.692 23.812 23.832 23.492 23.992C23.18 24.152 22.92 24.32 22.712 24.496C22.64 24.448 22.564 24.376 22.484 24.28C22.412 24.184 22.344 24.08 22.28 23.968C22.216 23.848 22.16 23.728 22.112 23.608C22.064 23.488 22.036 23.38 22.028 23.284C22.26 23.124 22.548 22.976 22.892 22.84C23.236 22.704 23.604 22.588 23.996 22.492C24.388 22.388 24.792 22.308 25.208 22.252C25.632 22.196 26.036 22.168 26.42 22.168C26.876 22.168 27.288 22.228 27.656 22.348C28.024 22.46 28.336 22.62 28.592 22.828C28.848 23.036 29.044 23.284 29.18 23.572C29.316 23.86 29.384 24.18 29.384 24.532ZM27.248 23.092C26.944 23.092 26.632 23.116 26.312 23.164L26.456 23.38C26.376 23.484 26.276 23.64 26.156 23.848C26.036 24.056 25.904 24.308 25.76 24.604C25.616 24.892 25.456 25.216 25.28 25.576C25.112 25.936 24.932 26.316 24.74 26.716C25.364 26.716 25.932 26.66 26.444 26.548C26.956 26.428 27.392 26.268 27.752 26.068C28.12 25.86 28.404 25.62 28.604 25.348C28.812 25.076 28.916 24.784 28.916 24.472C28.916 24.056 28.776 23.724 28.496 23.476C28.216 23.22 27.8 23.092 27.248 23.092ZM28.8512 30.796C28.8512 30.516 28.8792 30.188 28.9352 29.812C28.9912 29.428 29.0712 29.02 29.1752 28.588C29.2872 28.156 29.4152 27.704 29.5592 27.232C29.7112 26.76 29.8792 26.288 30.0632 25.816C30.2232 25.392 30.4072 24.964 30.6152 24.532C30.8312 24.1 31.0632 23.676 31.3112 23.26C31.5592 22.844 31.8152 22.448 32.0792 22.072C32.3512 21.696 32.6232 21.352 32.8952 21.04C33.0232 21.04 33.1592 21.056 33.3032 21.088C33.4552 21.12 33.5992 21.164 33.7352 21.22C33.8792 21.268 34.0072 21.328 34.1192 21.4C34.2392 21.472 34.3352 21.544 34.4072 21.616C33.8072 22.232 33.2672 22.856 32.7872 23.488C32.3072 24.112 31.9272 24.7 31.6472 25.252C31.4952 25.556 31.3552 25.84 31.2272 26.104C31.1072 26.368 30.9952 26.632 30.8912 26.896C30.7872 27.152 30.6912 27.412 30.6032 27.676C30.5232 27.932 30.4472 28.204 30.3752 28.492C31.9112 26.532 33.0512 25.552 33.7952 25.552C34.0032 25.552 34.2272 25.62 34.4672 25.756C34.7072 25.892 34.9192 26.076 35.1032 26.308C34.8552 26.58 34.5992 26.908 34.3352 27.292C34.0712 27.676 33.8272 28.064 33.6032 28.456C33.3872 28.84 33.2072 29.2 33.0632 29.536C32.9272 29.864 32.8592 30.108 32.8592 30.268C32.8592 30.348 32.8712 30.404 32.8952 30.436C32.9192 30.46 32.9712 30.472 33.0512 30.472C33.1712 30.472 33.2672 30.456 33.3392 30.424C33.4112 30.392 33.4552 30.376 33.4712 30.376C33.5112 30.44 33.5352 30.484 33.5432 30.508C33.5512 30.532 33.5552 30.552 33.5552 30.568C33.5552 30.6 33.5072 30.648 33.4112 30.712C33.3152 30.768 33.1992 30.828 33.0632 30.892C32.9352 30.948 32.8072 31 32.6792 31.048C32.5512 31.096 32.4552 31.12 32.3912 31.12C32.3112 31.12 32.2312 31.096 32.1512 31.048C32.0712 31.008 31.9992 30.952 31.9352 30.88C31.8792 30.808 31.8312 30.728 31.7912 30.64C31.7592 30.552 31.7432 30.46 31.7432 30.364C31.7432 30.244 31.7752 30.068 31.8392 29.836C31.9112 29.596 32.0072 29.32 32.1272 29.008C32.2472 28.688 32.3912 28.34 32.5592 27.964C32.7272 27.588 32.9072 27.204 33.0992 26.812C33.0992 26.78 33.0832 26.764 33.0512 26.764C33.0272 26.764 32.9632 26.796 32.8592 26.86C32.7632 26.924 32.6712 26.988 32.5832 27.052C32.2952 27.268 32.0032 27.536 31.7072 27.856C31.4192 28.168 31.1352 28.512 30.8552 28.888C30.5832 29.264 30.3232 29.664 30.0752 30.088C29.8352 30.504 29.6272 30.924 29.4512 31.348C29.4272 31.404 29.3912 31.456 29.3432 31.504C29.2952 31.552 29.2552 31.576 29.2232 31.576C29.1992 31.576 29.1632 31.548 29.1152 31.492C29.0752 31.436 29.0352 31.364 28.9952 31.276C28.9632 31.196 28.9312 31.112 28.8992 31.024C28.8672 30.936 28.8512 30.86 28.8512 30.796Z" fill="black"/>
<path d="M43.096 18.332C43.096 18.484 43.044 18.632 42.94 18.776C42.844 18.92 42.708 19.068 42.532 19.22C42.356 19.364 42.152 19.516 41.92 19.676C41.688 19.828 41.436 19.988 41.164 20.156C40.996 20.268 40.852 20.368 40.732 20.456C40.62 20.536 40.528 20.62 40.456 20.708C40.776 20.684 41.092 20.624 41.404 20.528C41.724 20.424 42.004 20.292 42.244 20.132C42.308 20.188 42.376 20.272 42.448 20.384C42.52 20.496 42.556 20.604 42.556 20.708C42.556 20.884 42.448 20.996 42.232 21.044C42.016 21.092 41.756 21.12 41.452 21.128C41.156 21.128 40.852 21.132 40.54 21.14C40.236 21.148 39.988 21.2 39.796 21.296C39.66 21.256 39.536 21.196 39.424 21.116C39.312 21.036 39.236 20.944 39.196 20.84C39.228 20.744 39.28 20.656 39.352 20.576C39.424 20.496 39.52 20.412 39.64 20.324C39.76 20.236 39.904 20.14 40.072 20.036C40.24 19.932 40.44 19.812 40.672 19.676C41.144 19.396 41.524 19.14 41.812 18.908C42.108 18.676 42.256 18.448 42.256 18.224C42.256 18.096 42.212 17.996 42.124 17.924C42.036 17.844 41.92 17.804 41.776 17.804C41.552 17.804 41.348 17.876 41.164 18.02C40.988 18.156 40.9 18.324 40.9 18.524C40.9 18.652 40.992 18.796 41.176 18.956C41.056 18.98 40.972 18.996 40.924 19.004C40.884 19.004 40.852 19.004 40.828 19.004C40.588 19.004 40.388 18.952 40.228 18.848C40.068 18.736 39.988 18.6 39.988 18.44C39.988 18.312 40.04 18.192 40.144 18.08C40.248 17.96 40.384 17.856 40.552 17.768C40.72 17.68 40.908 17.612 41.116 17.564C41.332 17.508 41.548 17.48 41.764 17.48C42.172 17.48 42.496 17.56 42.736 17.72C42.976 17.872 43.096 18.076 43.096 18.332ZM44.5042 17.816C44.5842 17.776 44.6842 17.74 44.8042 17.708C44.9322 17.668 45.0642 17.636 45.2002 17.612C45.3362 17.588 45.4722 17.572 45.6082 17.564C45.7522 17.548 45.8762 17.54 45.9802 17.54C46.3882 17.54 46.6762 17.612 46.8442 17.756C47.0122 17.9 47.0962 18.052 47.0962 18.212C47.0962 18.364 47.0282 18.528 46.8922 18.704C46.7562 18.872 46.5682 19.024 46.3282 19.16C46.5842 19.2 46.7642 19.272 46.8682 19.376C46.9722 19.48 47.0242 19.62 47.0242 19.796C47.0242 20.052 46.9282 20.268 46.7362 20.444C46.5522 20.62 46.3162 20.764 46.0282 20.876C45.7402 20.98 45.4282 21.06 45.0922 21.116C44.7562 21.164 44.4402 21.188 44.1442 21.188C43.9522 21.156 43.8042 21.084 43.7002 20.972C43.6042 20.852 43.5562 20.712 43.5562 20.552C43.5562 20.544 43.5562 20.524 43.5562 20.492C43.5642 20.452 43.5682 20.428 43.5682 20.42C43.6722 20.436 43.7802 20.452 43.8922 20.468C44.0122 20.484 44.1162 20.492 44.2042 20.492C44.4122 20.492 44.6362 20.476 44.8762 20.444C45.1242 20.404 45.3522 20.352 45.5602 20.288C45.7682 20.224 45.9402 20.144 46.0762 20.048C46.2122 19.944 46.2802 19.828 46.2802 19.7C46.2802 19.548 46.1362 19.448 45.8482 19.4C45.7122 19.448 45.5802 19.484 45.4522 19.508C45.3322 19.532 45.2362 19.544 45.1642 19.544C45.0362 19.544 44.9242 19.504 44.8282 19.424C44.7322 19.336 44.6842 19.2 44.6842 19.016C44.8842 19.016 45.0922 19.004 45.3082 18.98C45.5242 18.948 45.7242 18.9 45.9082 18.836C46.1002 18.764 46.2562 18.672 46.3762 18.56C46.5042 18.44 46.5722 18.292 46.5802 18.116C46.5242 18.036 46.4162 17.996 46.2562 17.996C46.0562 17.996 45.8242 18.04 45.5602 18.128C45.3042 18.216 45.0842 18.328 44.9002 18.464C44.6202 18.352 44.4802 18.176 44.4802 17.936C44.4802 17.888 44.4882 17.848 44.5042 17.816Z" fill="white"/>
<defs>
<filter id="filter0_d_58_24" x="6" y="0" width="49" height="70" filterUnits="userSpaceOnUse" color-interpolation-filters="sRGB">
<feFlood flood-opacity="0" result="BackgroundImageFix"/>
<feColorMatrix in="SourceAlpha" type="matrix" values="0 0 0 0 0 0 0 0 0 0 0 0 0 0 0 0 0 0 127 0" result="hardAlpha"/>
<feOffset dy="4"/>
<feGaussianBlur stdDeviation="2"/>
<feComposite in2="hardAlpha" operator="out"/>
<feColorMatrix type="matrix" values="0 0 0 0 0 0 0 0 0 0 0 0 0 0 0 0 0 0 0.25 0"/>
<feBlend mode="normal" in2="BackgroundImageFix" result="effect1_dropShadow_58_24"/>
<feBlend mode="normal" in="SourceGraphic" in2="effect1_dropShadow_58_24" result="shape"/>
</filter>
</defs>
</svg>
