<svg width="56" height="70" viewBox="0 0 56 70" fill="none" xmlns="http://www.w3.org/2000/svg">
<ellipse cx="28" cy="32.4996" rx="28" ry="26.8961" fill="#264155"/>
<path d="M46.09 3.70333L26.0836 0L6.62293 37.2096L20.6274 38.6204L1.16666 69.4815L49 26.805L30.4487 25.0415L46.09 3.70333Z" fill="#FFD43D"/>
<path d="M23.3967 25.7251C23.3967 26.2751 23.2567 26.8001 22.9767 27.3001C22.7067 27.8001 22.3367 28.2401 21.8667 28.6201C21.4067 28.9901 20.8617 29.2851 20.2317 29.5051C19.6117 29.7251 18.9517 29.8351 18.2517 29.8351C18.0017 29.8351 17.8017 29.8051 17.6517 29.7451C17.5117 29.6751 17.3517 29.5451 17.1717 29.3551C16.6717 30.4451 16.2617 31.4501 15.9417 32.3701C15.6317 33.2801 15.3867 34.1651 15.2067 35.0251C14.8267 34.9351 14.5167 34.7751 14.2767 34.5451C14.0367 34.3251 13.8167 34.0451 13.6167 33.7051C13.7167 33.5151 13.8367 33.2651 13.9767 32.9551C14.1167 32.6451 14.2867 32.2651 14.4867 31.8151C14.6867 31.3551 14.9167 30.8101 15.1767 30.1801C15.4467 29.5401 15.7617 28.7951 16.1217 27.9451C16.2817 27.5551 16.4217 27.2151 16.5417 26.9251C16.6617 26.6351 16.7667 26.3651 16.8567 26.1151C16.9467 25.8551 17.0267 25.6001 17.0967 25.3501C17.1767 25.1001 17.2567 24.8251 17.3367 24.5251C16.8667 24.6751 16.4317 24.8501 16.0317 25.0501C15.6417 25.2501 15.3167 25.4601 15.0567 25.6801C14.9667 25.6201 14.8717 25.5301 14.7717 25.4101C14.6817 25.2901 14.5967 25.1601 14.5167 25.0201C14.4367 24.8701 14.3667 24.7201 14.3067 24.5701C14.2467 24.4201 14.2117 24.2851 14.2017 24.1651C14.4917 23.9651 14.8517 23.7801 15.2817 23.6101C15.7117 23.4401 16.1717 23.2951 16.6617 23.1751C17.1517 23.0451 17.6567 22.9451 18.1767 22.8751C18.7067 22.8051 19.2117 22.7701 19.6917 22.7701C20.2617 22.7701 20.7767 22.8451 21.2367 22.9951C21.6967 23.1351 22.0867 23.3351 22.4067 23.5951C22.7267 23.8551 22.9717 24.1651 23.1417 24.5251C23.3117 24.8851 23.3967 25.2851 23.3967 25.7251ZM20.7267 23.9251C20.3467 23.9251 19.9567 23.9551 19.5567 24.0151L19.7367 24.2851C19.6367 24.4151 19.5117 24.6101 19.3617 24.8701C19.2117 25.1301 19.0467 25.4451 18.8667 25.8151C18.6867 26.1751 18.4867 26.5801 18.2667 27.0301C18.0567 27.4801 17.8317 27.9551 17.5917 28.4551C18.3717 28.4551 19.0817 28.3851 19.7217 28.2451C20.3617 28.0951 20.9067 27.8951 21.3567 27.6451C21.8167 27.3851 22.1717 27.0851 22.4217 26.7451C22.6817 26.4051 22.8117 26.0401 22.8117 25.6501C22.8117 25.1301 22.6367 24.7151 22.2867 24.4051C21.9367 24.0851 21.4167 23.9251 20.7267 23.9251ZM22.7307 33.5551C22.7307 33.2051 22.7657 32.7951 22.8357 32.3251C22.9057 31.8451 23.0057 31.3351 23.1357 30.7951C23.2757 30.2551 23.4357 29.6901 23.6157 29.1001C23.8057 28.5101 24.0157 27.9201 24.2457 27.3301C24.4457 26.8001 24.6757 26.2651 24.9357 25.7251C25.2057 25.1851 25.4957 24.6551 25.8057 24.1351C26.1157 23.6151 26.4357 23.1201 26.7657 22.6501C27.1057 22.1801 27.4457 21.7501 27.7857 21.3601C27.9457 21.3601 28.1157 21.3801 28.2957 21.4201C28.4857 21.4601 28.6657 21.5151 28.8357 21.5851C29.0157 21.6451 29.1757 21.7201 29.3157 21.8101C29.4657 21.9001 29.5857 21.9901 29.6757 22.0801C28.9257 22.8501 28.2507 23.6301 27.6507 24.4201C27.0507 25.2001 26.5757 25.9351 26.2257 26.6251C26.0357 27.0051 25.8607 27.3601 25.7007 27.6901C25.5507 28.0201 25.4107 28.3501 25.2807 28.6801C25.1507 29.0001 25.0307 29.3251 24.9207 29.6551C24.8207 29.9751 24.7257 30.3151 24.6357 30.6751C26.5557 28.2251 27.9807 27.0001 28.9107 27.0001C29.1707 27.0001 29.4507 27.0851 29.7507 27.2551C30.0507 27.4251 30.3157 27.6551 30.5457 27.9451C30.2357 28.2851 29.9157 28.6951 29.5857 29.1751C29.2557 29.6551 28.9507 30.1401 28.6707 30.6301C28.4007 31.1101 28.1757 31.5601 27.9957 31.9801C27.8257 32.3901 27.7407 32.6951 27.7407 32.8951C27.7407 32.9951 27.7557 33.0651 27.7857 33.1051C27.8157 33.1351 27.8807 33.1501 27.9807 33.1501C28.1307 33.1501 28.2507 33.1301 28.3407 33.0901C28.4307 33.0501 28.4857 33.0301 28.5057 33.0301C28.5557 33.1101 28.5857 33.1651 28.5957 33.1951C28.6057 33.2251 28.6107 33.2501 28.6107 33.2701C28.6107 33.3101 28.5507 33.3701 28.4307 33.4501C28.3107 33.5201 28.1657 33.5951 27.9957 33.6751C27.8357 33.7451 27.6757 33.8101 27.5157 33.8701C27.3557 33.9301 27.2357 33.9601 27.1557 33.9601C27.0557 33.9601 26.9557 33.9301 26.8557 33.8701C26.7557 33.8201 26.6657 33.7501 26.5857 33.6601C26.5157 33.5701 26.4557 33.4701 26.4057 33.3601C26.3657 33.2501 26.3457 33.1351 26.3457 33.0151C26.3457 32.8651 26.3857 32.6451 26.4657 32.3551C26.5557 32.0551 26.6757 31.7101 26.8257 31.3201C26.9757 30.9201 27.1557 30.4851 27.3657 30.0151C27.5757 29.5451 27.8007 29.0651 28.0407 28.5751C28.0407 28.5351 28.0207 28.5151 27.9807 28.5151C27.9507 28.5151 27.8707 28.5551 27.7407 28.6351C27.6207 28.7151 27.5057 28.7951 27.3957 28.8751C27.0357 29.1451 26.6707 29.4801 26.3007 29.8801C25.9407 30.2701 25.5857 30.7001 25.2357 31.1701C24.8957 31.6401 24.5707 32.1401 24.2607 32.6701C23.9607 33.1901 23.7007 33.7151 23.4807 34.2451C23.4507 34.3151 23.4057 34.3801 23.3457 34.4401C23.2857 34.5001 23.2357 34.5301 23.1957 34.5301C23.1657 34.5301 23.1207 34.4951 23.0607 34.4251C23.0107 34.3551 22.9607 34.2651 22.9107 34.1551C22.8707 34.0551 22.8307 33.9501 22.7907 33.8401C22.7507 33.7301 22.7307 33.6351 22.7307 33.5551Z" fill="black"/>
<path d="M40.9453 18.3814C40.9453 18.5587 40.8847 18.7314 40.7633 18.8994C40.6513 19.0674 40.4927 19.2401 40.2873 19.4174C40.082 19.5854 39.844 19.7627 39.5733 19.9494C39.3027 20.1267 39.0087 20.3134 38.6913 20.5094C38.4953 20.6401 38.3273 20.7567 38.1873 20.8594C38.0567 20.9527 37.9493 21.0507 37.8653 21.1534C38.2387 21.1254 38.6073 21.0554 38.9713 20.9434C39.3447 20.8221 39.6713 20.6681 39.9513 20.4814C40.026 20.5467 40.1053 20.6447 40.1893 20.7754C40.2733 20.9061 40.3153 21.0321 40.3153 21.1534C40.3153 21.3587 40.1893 21.4894 39.9373 21.5454C39.6853 21.6014 39.382 21.6341 39.0273 21.6434C38.682 21.6434 38.3273 21.6481 37.9633 21.6574C37.6087 21.6667 37.3193 21.7274 37.0953 21.8394C36.9367 21.7927 36.792 21.7227 36.6613 21.6294C36.5307 21.5361 36.442 21.4287 36.3953 21.3074C36.4327 21.1954 36.4933 21.0927 36.5773 20.9994C36.6613 20.9061 36.7733 20.8081 36.9133 20.7054C37.0533 20.6027 37.2213 20.4907 37.4173 20.3694C37.6133 20.2481 37.8467 20.1081 38.1173 19.9494C38.668 19.6227 39.1113 19.3241 39.4473 19.0534C39.7927 18.7827 39.9653 18.5167 39.9653 18.2554C39.9653 18.1061 39.914 17.9894 39.8113 17.9054C39.7087 17.8121 39.5733 17.7654 39.4053 17.7654C39.144 17.7654 38.906 17.8494 38.6913 18.0174C38.486 18.1761 38.3833 18.3721 38.3833 18.6054C38.3833 18.7547 38.4907 18.9227 38.7053 19.1094C38.5653 19.1374 38.4673 19.1561 38.4113 19.1654C38.3647 19.1654 38.3273 19.1654 38.2993 19.1654C38.0193 19.1654 37.786 19.1047 37.5993 18.9834C37.4127 18.8527 37.3193 18.6941 37.3193 18.5074C37.3193 18.3581 37.38 18.2181 37.5013 18.0874C37.6227 17.9474 37.7813 17.8261 37.9773 17.7234C38.1733 17.6207 38.3927 17.5414 38.6353 17.4854C38.8873 17.4201 39.1393 17.3874 39.3913 17.3874C39.8673 17.3874 40.2453 17.4807 40.5253 17.6674C40.8053 17.8447 40.9453 18.0827 40.9453 18.3814ZM42.5883 17.7794C42.6816 17.7327 42.7983 17.6907 42.9383 17.6534C43.0876 17.6067 43.2416 17.5694 43.4003 17.5414C43.5589 17.5134 43.7176 17.4947 43.8763 17.4854C44.0443 17.4667 44.1889 17.4574 44.3103 17.4574C44.7863 17.4574 45.1223 17.5414 45.3183 17.7094C45.5143 17.8774 45.6123 18.0547 45.6123 18.2414C45.6123 18.4187 45.5329 18.6101 45.3743 18.8154C45.2156 19.0114 44.9963 19.1887 44.7163 19.3474C45.0149 19.3941 45.2249 19.4781 45.3463 19.5994C45.4676 19.7207 45.5283 19.8841 45.5283 20.0894C45.5283 20.3881 45.4163 20.6401 45.1923 20.8454C44.9776 21.0507 44.7023 21.2187 44.3663 21.3494C44.0303 21.4707 43.6663 21.5641 43.2743 21.6294C42.8823 21.6854 42.5136 21.7134 42.1683 21.7134C41.9443 21.6761 41.7716 21.5921 41.6503 21.4614C41.5383 21.3214 41.4823 21.1581 41.4823 20.9714C41.4823 20.9621 41.4823 20.9387 41.4823 20.9014C41.4916 20.8547 41.4963 20.8267 41.4963 20.8174C41.6176 20.8361 41.7436 20.8547 41.8743 20.8734C42.0143 20.8921 42.1356 20.9014 42.2383 20.9014C42.4809 20.9014 42.7423 20.8827 43.0223 20.8454C43.3116 20.7987 43.5776 20.7381 43.8203 20.6634C44.0629 20.5887 44.2636 20.4954 44.4223 20.3834C44.5809 20.2621 44.6603 20.1267 44.6603 19.9774C44.6603 19.8001 44.4923 19.6834 44.1563 19.6274C43.9976 19.6834 43.8436 19.7254 43.6943 19.7534C43.5543 19.7814 43.4423 19.7954 43.3583 19.7954C43.2089 19.7954 43.0783 19.7487 42.9663 19.6554C42.8543 19.5527 42.7983 19.3941 42.7983 19.1794C43.0316 19.1794 43.2743 19.1654 43.5263 19.1374C43.7783 19.1001 44.0116 19.0441 44.2263 18.9694C44.4503 18.8854 44.6323 18.7781 44.7723 18.6474C44.9216 18.5074 45.0009 18.3347 45.0103 18.1294C44.9449 18.0361 44.8189 17.9894 44.6323 17.9894C44.3989 17.9894 44.1283 18.0407 43.8203 18.1434C43.5216 18.2461 43.2649 18.3767 43.0503 18.5354C42.7236 18.4047 42.5603 18.1994 42.5603 17.9194C42.5603 17.8634 42.5696 17.8167 42.5883 17.7794Z" fill="white"/>
</svg>
